<svg id="Capa_1" enable-background="new 0 0 512 512" height="512" viewBox="0 0 512 512" width="512" xmlns="http://www.w3.org/2000/svg"><g><g><path d="m331 497h-150v-106h150z" fill="#e1e6f0"/></g><path d="m256 391h75v106h-75z" fill="#c7cfe1"/><g><path d="m301 512h-150v-30h195z" fill="#f3f5f9"/></g><path d="m256 512h45l45-30h-90z" fill="#e1e6f0"/><g><path d="m331 421h-331v-150c0-16.569 13.431-30 30-30h91v-180h391v120c0 16.569-13.431 30-30 30h-151z" fill="#6cf"/></g><path d="m512 181v-120h-256v360h75v-210h151c16.569 0 30-13.433 30-30z" fill="#59abff"/><g id="Network_2_"><g><g><g><g><path d="m151 271h-151v-60c0-16.569 13.431-30 30-30h91c16.569 0 30 13.431 30 30z" fill="#3a4d4d"/></g></g></g></g><g><g><g><g><path d="m512 512h-211v-61c0-16.569 13.431-30 30-30h151c16.569 0 30 13.431 30 30z" fill="#213333"/></g></g></g></g></g><g><g><g><g><path d="m512 451h-211v-270h211z" fill="#3a4d4d"/></g></g></g></g><g><g><g><g><path d="m151 211h-151v-211h151z" fill="#4d6666"/></g></g></g></g></g></svg>