<?xml version="1.0" encoding="UTF-8" standalone="no"?>
<svg
   xmlns:dc="http://purl.org/dc/elements/1.1/"
   xmlns:cc="http://creativecommons.org/ns#"
   xmlns:rdf="http://www.w3.org/1999/02/22-rdf-syntax-ns#"
   xmlns:svg="http://www.w3.org/2000/svg"
   xmlns="http://www.w3.org/2000/svg"
   xmlns:sodipodi="http://sodipodi.sourceforge.net/DTD/sodipodi-0.dtd"
   xmlns:inkscape="http://www.inkscape.org/namespaces/inkscape"
   inkscape:version="1.0 (4035a4fb49, 2020-05-01)"
   height="392.526"
   width="371.98401"
   sodipodi:docname="css.svg"
   xml:space="preserve"
   viewBox="0 0 371.98401 392.526"
   y="0px"
   x="0px"
   id="Capa_1"
   version="1.1"><metadata
   id="metadata937"><rdf:RDF><cc:Work
       rdf:about=""><dc:format>image/svg+xml</dc:format><dc:type
         rdf:resource="http://purl.org/dc/dcmitype/StillImage" /><dc:title></dc:title></cc:Work></rdf:RDF></metadata><defs
   id="defs935" /><sodipodi:namedview
   inkscape:current-layer="Capa_1"
   inkscape:window-maximized="1"
   inkscape:window-y="-8"
   inkscape:window-x="-8"
   inkscape:cy="136.526"
   inkscape:cx="185.992"
   inkscape:zoom="1.0074695"
   fit-margin-bottom="0"
   fit-margin-right="0"
   fit-margin-left="0"
   fit-margin-top="0"
   showgrid="false"
   id="namedview933"
   inkscape:window-height="705"
   inkscape:window-width="1366"
   inkscape:pageshadow="2"
   inkscape:pageopacity="0"
   guidetolerance="10"
   gridtolerance="10"
   objecttolerance="10"
   borderopacity="1"
   bordercolor="#666666"
   pagecolor="#ffffff" />

<path
   id="path888"
   d="m 371.984,0 -29.226,338.923 c -43.311,33.604 -97.698,53.603 -156.766,53.603 -59.068,0 -113.455,-19.999 -156.766,-53.603 L 0,0 Z"
   style="fill:#006bc0" />
<polygon
   transform="translate(-70.008,-119.474)"
   id="polygon890"
   points="378.269,470.777 405.545,151.338 255.997,151.338 255.997,505.296 "
   style="fill:#0096dc" />
<polygon
   transform="translate(-70.008,-119.474)"
   id="polygon892"
   points="367.999,242.89 371.981,195.746 140.013,195.746 144.072,243.811 237.189,243.811 147.845,288.484 152.002,337.723 152.002,337.723 311.376,337.723 306.152,396.366 255.997,409.95 203.752,395.321 202.446,358.75 153.778,358.75 159.866,430.848 255.997,458.015 352.127,430.848 364.039,289.779 364.036,289.787 275.85,289.787 "
   style="fill:#ffffff" />

<g
   transform="translate(-70.008,-119.474)"
   id="g902">
</g>
<g
   transform="translate(-70.008,-119.474)"
   id="g904">
</g>
<g
   transform="translate(-70.008,-119.474)"
   id="g906">
</g>
<g
   transform="translate(-70.008,-119.474)"
   id="g908">
</g>
<g
   transform="translate(-70.008,-119.474)"
   id="g910">
</g>
<g
   transform="translate(-70.008,-119.474)"
   id="g912">
</g>
<g
   transform="translate(-70.008,-119.474)"
   id="g914">
</g>
<g
   transform="translate(-70.008,-119.474)"
   id="g916">
</g>
<g
   transform="translate(-70.008,-119.474)"
   id="g918">
</g>
<g
   transform="translate(-70.008,-119.474)"
   id="g920">
</g>
<g
   transform="translate(-70.008,-119.474)"
   id="g922">
</g>
<g
   transform="translate(-70.008,-119.474)"
   id="g924">
</g>
<g
   transform="translate(-70.008,-119.474)"
   id="g926">
</g>
<g
   transform="translate(-70.008,-119.474)"
   id="g928">
</g>
<g
   transform="translate(-70.008,-119.474)"
   id="g930">
</g>
</svg>
