<?xml version="1.0" encoding="UTF-8" standalone="no"?>
<svg
   xmlns:dc="http://purl.org/dc/elements/1.1/"
   xmlns:cc="http://creativecommons.org/ns#"
   xmlns:rdf="http://www.w3.org/1999/02/22-rdf-syntax-ns#"
   xmlns:svg="http://www.w3.org/2000/svg"
   xmlns="http://www.w3.org/2000/svg"
   xmlns:sodipodi="http://sodipodi.sourceforge.net/DTD/sodipodi-0.dtd"
   xmlns:inkscape="http://www.inkscape.org/namespaces/inkscape"
   height="392.526"
   width="370.88699"
   inkscape:version="1.0 (4035a4fb49, 2020-05-01)"
   sodipodi:docname="html-5.svg"
   xml:space="preserve"
   viewBox="0 0 370.88699 392.526"
   y="0px"
   x="0px"
   id="Capa_1"
   version="1.1"><metadata
   id="metadata53"><rdf:RDF><cc:Work
       rdf:about=""><dc:format>image/svg+xml</dc:format><dc:type
         rdf:resource="http://purl.org/dc/dcmitype/StillImage" /><dc:title></dc:title></cc:Work></rdf:RDF></metadata><defs
   id="defs51" /><sodipodi:namedview
   fit-margin-bottom="0"
   fit-margin-right="0"
   fit-margin-left="0"
   fit-margin-top="0"
   inkscape:current-layer="Capa_1"
   inkscape:window-maximized="1"
   inkscape:window-y="-8"
   inkscape:window-x="-8"
   inkscape:cy="295.33974"
   inkscape:cx="184.895"
   inkscape:zoom="1.0074695"
   showgrid="false"
   id="namedview49"
   inkscape:window-height="705"
   inkscape:window-width="1366"
   inkscape:pageshadow="2"
   inkscape:pageopacity="0"
   guidetolerance="10"
   gridtolerance="10"
   objecttolerance="10"
   borderopacity="1"
   bordercolor="#666666"
   pagecolor="#ffffff" />
<path
   id="path2"
   d="m 440.895,136.526 c 0,82.317 -38.86,155.564 -99.234,202.397 -43.311,33.604 -97.698,53.603 -156.766,53.603 -58.535,0 -112.473,-19.644 -155.596,-52.705 -61.043,-46.78 -100.404,-120.445 -100.404,-203.295 0,-141.385 114.615,-256 256,-256 141.385,0 256,114.615 256,256 z"
   style="fill:#f2f2f2" />
<path
   id="path4"
   d="m 370.887,0 -29.226,338.923 c -43.311,33.604 -97.698,53.603 -156.766,53.603 -58.535,0 -112.473,-19.644 -155.596,-52.705 L 0,0 Z"
   style="fill:#e64c18" />
<polygon
   transform="translate(-71.105,-119.474)"
   id="polygon6"
   points="378.46,469.75 405.655,151.249 256.546,151.249 256.546,504.167 "
   style="fill:#f36518" />
<polygon
   transform="translate(-71.105,-119.474)"
   id="polygon8"
   points="311.761,337.091 306.562,395.568 256.549,409.112 204.46,394.52 203.152,358.061 154.631,358.061 160.705,429.941 256.549,457.028 352.392,429.941 364.27,289.295 196.928,289.295 192.775,243.456 192.774,243.454 368.226,242.535 372.194,195.528 140.903,195.528 152.858,337.091 "
   style="fill:#ffffff" />




<g
   transform="translate(-71.105,-119.474)"
   id="g18">
</g>
<g
   transform="translate(-71.105,-119.474)"
   id="g20">
</g>
<g
   transform="translate(-71.105,-119.474)"
   id="g22">
</g>
<g
   transform="translate(-71.105,-119.474)"
   id="g24">
</g>
<g
   transform="translate(-71.105,-119.474)"
   id="g26">
</g>
<g
   transform="translate(-71.105,-119.474)"
   id="g28">
</g>
<g
   transform="translate(-71.105,-119.474)"
   id="g30">
</g>
<g
   transform="translate(-71.105,-119.474)"
   id="g32">
</g>
<g
   transform="translate(-71.105,-119.474)"
   id="g34">
</g>
<g
   transform="translate(-71.105,-119.474)"
   id="g36">
</g>
<g
   transform="translate(-71.105,-119.474)"
   id="g38">
</g>
<g
   transform="translate(-71.105,-119.474)"
   id="g40">
</g>
<g
   transform="translate(-71.105,-119.474)"
   id="g42">
</g>
<g
   transform="translate(-71.105,-119.474)"
   id="g44">
</g>
<g
   transform="translate(-71.105,-119.474)"
   id="g46">
</g>
</svg>
